#N canvas 108 51 1385 922 12;
#X declare -lib Gem;
#X msg 363 37 dimen 800 600;
#X obj 329 111 tgl 19 0 empty empty empty 0 -10 0 12 #fcfcfc #000000 #000000 0 1;
#X msg 384 105 create;
#X msg 453 105 destroy;
#X obj 922 16 declare -lib Gem;
#X obj 363 176 gemwin;
#X obj 16 263 tgl 19 0 empty empty empty 0 -10 0 12 #fcfcfc #000000 #000000 0 1;
#X obj 57 246 gemhead 55;
#X obj 57 304 depth, f 7;
#X obj 57 426 rotateXYZ;
#X obj 162 307 r rot;
#X obj 162 349 trigger b b f;
#X obj 162 389 float;
#X obj 232 388 +;
#X msg 152 474 draw line;
#X obj 40 498 cube 1;
#X obj 902 183 pix_video;
#X obj 902 227 pix_rgba;
#X obj 902 264 pix_flip;
#X obj 902 309 trigger a a;
#X msg 1076 228 horizontal;
#X obj 803 359 pix_separator;
#X obj 1000 361 pix_separator;
#X obj 803 414 pix_texture;
#X obj 1000 454 pix_movement;
#X obj 1115 472 hsl 162 19 0 127 0 0 empty empty empty -2 -10 0 12 #fcfcfc #000000 #000000 0 1;
#X obj 803 471 rectangle 5.33 4;
#X obj 1000 514 alpha;
#X obj 1000 587 pix_blob;
#X obj 1065 540 hradio 19 1 0 8 empty empty empty 0 -10 0 12 #fcfcfc #000000 #000000 0;
#X floatatom 1024 669 5 0 0 0 - - - 0;
#X floatatom 1093 686 5 0 0 0 - - - 0;
#X floatatom 1166 682 5 0 0 0 - - - 0;
#X obj 1025 720 s x;
#X obj 59 547 r x;
#X obj 59 584 trigger f f b;
#X obj 147 651 float;
#X obj 103 708 -;
#X obj 93 809 * 360;
#X obj 93 868 s rot;
#X msg 96 757 smooth;
#X text 928 47 library needed for gemwin && gemhead;
#X obj 902 141 gemhead 50;
#X text 230 418 rotation;
#X text 34 216 Creating a cube object;
#X obj 57 356 color 0 0 1;
#X text 36 331 blue background;
#X text 90 505 draw line message to enable the wireframe view;
#X text 191 570 trigger object to send the number and add it to current value and route result to rotateXYZ;
#X text 198 798 Multiplying it by 360 to make a complete rotation;
#X text 513 61 Creation of gem window same module as used in Ex1;
#X text 186 749 smooth object is used to smoothen the value;
#X text 159 703 Computating the difference in positions between two frames;
#X text 1005 122 Putting a gemhead obejct with a cube 3D object;
#X text 535 393 pix texture enables texture mapping the digital image;
#X text 532 316 pix separator is used to isolate each branch of the pixel effects;
#X text 574 259 pix flip flips images either horizontally or vertically or both;
#X text 1131 434 pix movement is purposed for motion detection;
#X text 836 580 pix blob calculates the centroid of an image;
#X text 1048 282 trigger a a \, object to send out graphic information to both spheres in synchronized fashion. Parameter a stands for any \, any type of data;
#X text 595 175 pix video gets to act like a live stream video with a webcam;
#X text 280 307 rigger b b f used to send number \, add it to current value \, and route result to rotateXYZ;
#X text 250 248 r rot object is amount we add to current rotation value;
#X connect 0 0 5 0;
#X connect 1 0 5 0;
#X connect 2 0 5 0;
#X connect 3 0 5 0;
#X connect 6 0 8 0;
#X connect 7 0 8 0;
#X connect 8 0 45 0;
#X connect 9 0 15 0;
#X connect 10 0 11 0;
#X connect 11 0 12 0;
#X connect 11 1 13 0;
#X connect 11 2 13 1;
#X connect 12 0 9 2;
#X connect 12 0 13 0;
#X connect 13 0 12 1;
#X connect 14 0 15 0;
#X connect 16 0 17 0;
#X connect 17 0 18 0;
#X connect 18 0 19 0;
#X connect 19 0 21 0;
#X connect 19 1 22 0;
#X connect 20 0 18 0;
#X connect 21 0 23 0;
#X connect 22 0 24 0;
#X connect 23 0 26 0;
#X connect 24 0 27 0;
#X connect 25 0 24 1;
#X connect 27 0 28 0;
#X connect 28 1 30 0;
#X connect 28 2 31 0;
#X connect 28 3 32 0;
#X connect 29 0 28 1;
#X connect 30 0 33 0;
#X connect 34 0 35 0;
#X connect 35 0 36 1;
#X connect 35 1 37 0;
#X connect 35 2 36 0;
#X connect 36 0 37 1;
#X connect 37 0 40 0;
#X connect 38 0 39 0;
#X connect 40 0 38 0;
#X connect 42 0 16 0;
#X connect 45 0 9 0;
