#N canvas 183 258 1134 772 12;
#X obj 64 408 noise~;
#X obj 256 659 dac~;
#X obj 81 450 bp~, f 18;
#X obj 80 501 bp~, f 18;
#X floatatom 139 388 5 0 0 0 - - - 0;
#X floatatom 296 388 5 0 0 0 - - - 0;
#X floatatom 194 387 5 0 0 0 - - - 0;
#X msg 122 319 130;
#X obj 245 448 bp~, f 18;
#X obj 245 503 bp~, f 18;
#X obj 430 502 bp~, f 18;
#X obj 429 448 bp~, f 18;
#X text 410 555 bp~ creates a badnpass filter to allow specific ranges of frequences \; two arguments \, center frequency and bandwidth filter;
#X obj 640 180 loadbang;
#X msg 188 320 1.2;
#X obj 219 173 r centerFrequency_01 @hv_param 20 20000 130;
#X obj 284 209 r Q @hv_param 0.1 2 1.2;
#X obj 236 409 noise~;
#X msg 301 327 130, f 4;
#X obj 681 300 hsl 162 19 0 127 0 0 empty empty empty -2 -10 0 12 #fcfcfc #000000 #000000 0 1;
#X text 858 305 Center Freq;
#X obj 682 344 hsl 162 19 0 127 0 0 empty empty empty -2 -10 0 12 #fcfcfc #000000 #000000 0 1;
#X floatatom 345 394 5 0 0 0 - - - 0;
#X msg 355 328 1.2, f 4;
#X obj 420 412 noise~;
#X floatatom 482 377 5 0 0 0 - - - 0;
#X floatatom 540 388 5 0 0 0 - - - 0;
#X msg 538 310 1.2, f 4;
#X msg 474 314 130, f 4;
#X text 864 345 Q;
#X msg 652 226 300, f 4;
#X obj 254 605 *~ 0.2;
#X text 412 611 noise~ generates random noise signals;
#X text 430 658 dac~ used to represent the audio output. Stands fro "Digital-to-analog converter";
#X text 726 160 loadbang special object that sends a trigger message whenever a patch is loaded or created;
#X text 36 47 r = receiver centerFrequency_1 is the name of the receiver @hv_param is an annotation that specifies that this receiver is a Heavy parameter 20 is the minimum value of the parameter 20000 is the maxium value 130 is the default value;
#X text 570 22 r = receiver Q is the name of the reciever @hv_param annotation specifiying that this receiver is a Heavy parameter 0.1 is the minium value 2 is the max value 1.2 is the default value;
#X connect 0 0 2 0;
#X connect 2 0 3 0;
#X connect 3 0 31 0;
#X connect 4 0 2 1;
#X connect 4 0 3 1;
#X connect 5 0 8 1;
#X connect 5 0 9 1;
#X connect 6 0 2 2;
#X connect 6 0 3 2;
#X connect 7 0 4 0;
#X connect 8 0 9 0;
#X connect 9 0 31 0;
#X connect 10 0 31 0;
#X connect 11 0 10 0;
#X connect 13 0 7 0;
#X connect 13 0 14 0;
#X connect 13 0 18 0;
#X connect 13 0 23 0;
#X connect 13 0 28 0;
#X connect 13 0 27 0;
#X connect 15 0 4 0;
#X connect 15 0 5 0;
#X connect 15 0 25 0;
#X connect 16 0 6 0;
#X connect 16 0 22 0;
#X connect 16 0 26 0;
#X connect 17 0 8 0;
#X connect 18 0 5 0;
#X connect 19 0 4 0;
#X connect 19 0 5 0;
#X connect 19 0 25 0;
#X connect 21 0 26 0;
#X connect 21 0 22 0;
#X connect 21 0 6 0;
#X connect 22 0 8 2;
#X connect 22 0 9 2;
#X connect 23 0 22 0;
#X connect 24 0 11 0;
#X connect 25 0 11 1;
#X connect 25 0 10 1;
#X connect 26 0 11 2;
#X connect 26 0 10 2;
#X connect 27 0 26 0;
#X connect 28 0 25 0;
#X connect 31 0 1 0;
#X connect 31 0 1 1;
